<svg xmlns="http://www.w3.org/2000/svg" viewBox="0 0 128 128" role="img" aria-labelledby="title desc">
  <title id="title">GitHub Copilot Sessions Viewer icon</title>
  <desc id="desc">A stacked session browser icon with a copiloting visor badge.</desc>
  <defs>
    <linearGradient id="bg" x1="18" y1="10" x2="108" y2="116" gradientUnits="userSpaceOnUse">
      <stop offset="0" stop-color="#111827"/>
      <stop offset="0.56" stop-color="#1d4ed8"/>
      <stop offset="1" stop-color="#60a5fa"/>
    </linearGradient>
    <linearGradient id="glow" x1="20" y1="18" x2="98" y2="106" gradientUnits="userSpaceOnUse">
      <stop offset="0" stop-color="#ffffff" stop-opacity="0.3"/>
      <stop offset="1" stop-color="#ffffff" stop-opacity="0"/>
    </linearGradient>
  </defs>
  <rect x="8" y="8" width="112" height="112" rx="28" fill="url(#bg)"/>
  <rect x="8.5" y="8.5" width="111" height="111" rx="27.5" fill="none" stroke="#ffffff" stroke-opacity="0.16"/>
  <path d="M24 18c-8 5-12 12-14 24v49c6 15 19 25 36 28h35c19-1 34-16 37-36V46c-1-15-8-26-23-33H24z" fill="url(#glow)"/>
  <g opacity="0.94">
    <path d="M28 34h2v60h-2z" fill="#dbeafe" fill-opacity="0.68"/>
    <circle cx="29" cy="42" r="5" fill="#eff6ff"/>
    <circle cx="29" cy="64" r="5" fill="#bfdbfe"/>
    <circle cx="29" cy="86" r="5" fill="#93c5fd"/>
  </g>
  <g fill="#ffffff" fill-opacity="0.96">
    <rect x="40" y="30" width="56" height="18" rx="9"/>
    <rect x="40" y="54" width="48" height="18" rx="9" fill-opacity="0.88"/>
    <rect x="40" y="78" width="56" height="18" rx="9" fill-opacity="0.8"/>
  </g>
  <g fill="#173267" fill-opacity="0.76">
    <rect x="48" y="36" width="30" height="3" rx="1.5"/>
    <rect x="48" y="60" width="22" height="3" rx="1.5"/>
    <rect x="48" y="84" width="30" height="3" rx="1.5"/>
  </g>
  <g transform="translate(95 34)">
    <circle r="17" fill="#0f172a" fill-opacity="0.92"/>
    <circle r="16.5" fill="none" stroke="#93c5fd" stroke-opacity="0.5"/>
    <path d="M-8 -3.5c0-5.2 4.2-9.5 9.5-9.5h0c5.2 0 9.5 4.3 9.5 9.5v2.5c0 4.7-3.8 8.5-8.5 8.5h-2c-4.7 0-8.5-3.8-8.5-8.5v-2.5z" fill="#60a5fa"/>
    <rect x="-10" y="-1" width="20" height="9" rx="4.5" fill="#0b1220"/>
    <circle cx="-4.5" cy="3.5" r="2.1" fill="#dbeafe"/>
    <circle cx="4.5" cy="3.5" r="2.1" fill="#dbeafe"/>
    <path d="M-6 -8.5l-3.5-5" fill="none" stroke="#bfdbfe" stroke-width="2.5" stroke-linecap="round"/>
    <path d="M6 -8.5l3.5-5" fill="none" stroke="#bfdbfe" stroke-width="2.5" stroke-linecap="round"/>
  </g>
</svg>
